<svg width="48" height="48" viewBox="0 0 24 24" fill="none" xmlns="http://www.w3.org/2000/svg">
<path d="M4.08887 1C5.26052 1.00026 6.17846 1.96344 6.17871 3.11035C6.17871 3.90043 5.74268 4.60288 5.08887 4.96387V11.832L7.0293 7.21582C7.18436 6.84722 7.53926 6.60745 7.93262 6.60449L14.2275 6.55859C14.5765 5.8994 15.2632 5.44253 16.0703 5.44238C17.2422 5.44242 18.1599 6.40565 18.1602 7.55273C18.1602 8.7 17.2423 9.66305 16.0703 9.66309C15.276 9.66294 14.599 9.22047 14.2451 8.57812L8.59473 8.61816L7.12891 12.1064H18.249C18.4526 12.1065 18.6419 12.167 18.7998 12.2715V11.6699C18.7999 11.3201 18.9767 10.9945 19.2686 10.8105C19.5604 10.6266 19.9255 10.6103 20.2324 10.7666L23.3125 12.3379C23.6478 12.5088 23.8602 12.858 23.8604 13.2402C23.8604 13.6227 23.649 13.9735 23.3135 14.1445L20.2324 15.7139C19.9255 15.8703 19.5605 15.8548 19.2686 15.6709C18.9767 15.487 18.7999 15.1614 18.7998 14.8115V13.9395C18.6418 14.0442 18.4528 14.1064 18.249 14.1064H6.26758C6.16216 14.1064 6.06025 14.0898 5.96484 14.0596C5.73696 14.1434 5.47927 14.1438 5.23926 14.0391C5.18592 14.0157 5.13591 13.9873 5.08887 13.9561V17.5488C5.08899 17.8786 5.21746 18.1915 5.44043 18.4189C5.66299 18.6458 5.96142 18.7695 6.26758 18.7695H9.32324C9.38122 18.2682 9.79842 17.8789 10.3057 17.8789H11.8457C12.3924 17.879 12.8358 18.3313 12.8359 18.8887V20.459C12.8359 21.0164 12.3924 21.4685 11.8457 21.4688H10.3047C9.86425 21.4685 9.49173 21.1751 9.36328 20.7695H6.26758C5.41834 20.7695 4.60721 20.4254 4.0127 19.8193C3.41905 19.214 3.08899 18.3967 3.08887 17.5488V4.96387C2.43504 4.60293 2 3.90057 2 3.11035C2.00025 1.96341 2.91717 1.00022 4.08887 1ZM16.0713 7.49805C16.0557 7.49805 16.0264 7.514 16.0264 7.55371C16.0266 7.59301 16.0558 7.6084 16.0713 7.6084C16.0869 7.60798 16.115 7.59247 16.1152 7.55371C16.1152 7.51454 16.087 7.49848 16.0713 7.49805ZM4.08887 3.05566C4.07326 3.0558 4.04395 3.07178 4.04395 3.11133C4.04418 3.15051 4.07332 3.16589 4.08887 3.16602C4.10443 3.16582 4.13257 3.15043 4.13281 3.11133C4.13281 3.07186 4.10449 3.05586 4.08887 3.05566Z" fill="url(#paint0_linear_18_2)"/>
<defs>
<linearGradient id="paint0_linear_18_2" x1="12.9302" y1="1" x2="12.9302" y2="21.4688" gradientUnits="userSpaceOnUse">
<stop offset="0.101279" stop-color="#5B339C"/>
<stop offset="1" stop-color="#5244CF"/>
</linearGradient>
</defs>
</svg>
